# Blender 4.5.3 LTS
# www.blender.org
mtllib HealthPotion.mtl
o HealthPotion
v -1.049675 0.794212 0.372119
v -1.049675 0.794212 0.124040
v -1.049675 1.042291 0.372119
v -1.049675 1.290371 0.372119
v -1.049675 1.042291 0.124040
v -1.049675 1.290371 0.124040
v -0.553516 0.298053 0.620198
v -0.801596 0.546133 0.620198
v -0.801596 0.794212 0.620198
v -0.553516 0.546133 0.868278
v -0.553516 0.794212 0.868278
v -0.553516 0.546133 0.620198
v -0.553516 0.794212 0.620198
v -0.801596 0.298053 0.372119
v -0.801596 0.298053 0.124040
v -0.553516 0.298053 0.372119
v -0.553516 0.049974 0.124040
v -0.553516 0.298053 0.124040
v -0.801596 0.546133 0.372119
v -0.801596 0.794212 0.372119
v -0.801596 0.546133 0.124040
v -0.801596 0.794212 0.124040
v -0.553516 0.546133 0.372119
v -0.305437 0.298053 0.868278
v -0.305437 0.049974 0.620198
v -0.305437 0.298053 0.620198
v -0.057358 0.298053 0.868278
v -0.057358 0.049974 0.620198
v -0.057358 0.298053 0.620198
v -0.305437 0.546133 0.868278
v -0.305437 0.794212 0.868278
v -0.305437 0.546133 0.620198
v -0.057358 0.546133 0.868278
v -0.057358 0.794212 0.868278
v -0.305437 0.049974 0.372119
v -0.305437 0.298053 0.372119
v -0.305437 0.049974 0.124040
v -0.305437 0.298053 0.124040
v -0.057358 0.049974 0.372119
v -0.057358 0.298053 0.372119
v -0.057358 0.049974 0.124040
v -0.801596 1.042291 0.620198
v -0.801596 1.290371 0.620198
v -0.553516 1.042291 0.868278
v -0.553516 1.290371 0.868278
v -0.553516 1.042291 0.620198
v -0.553516 1.290371 0.620198
v -0.801596 1.538450 0.620198
v -0.801596 1.786530 0.620198
v -0.553516 1.538450 0.868278
v -0.553516 1.538450 0.620198
v -0.553516 1.786530 0.620198
v -0.801596 1.042291 0.372119
v -0.801596 1.290371 0.372119
v -0.801596 1.290371 0.124040
v -0.801596 1.538450 0.372119
v -0.801596 1.786530 0.372119
v -0.801596 1.538450 0.124040
v -0.801596 1.786530 0.124040
v -0.553516 1.786530 0.372119
v -0.553516 1.786530 0.124040
v -0.305437 1.042291 0.868278
v -0.305437 1.290371 0.868278
v -0.057358 1.042291 0.868278
v -0.057358 1.290371 0.868278
v -0.305437 1.538450 0.868278
v -0.305437 1.786530 0.868278
v -0.305437 1.538450 0.620198
v -0.305437 1.786530 0.620198
v -0.057358 1.538450 0.868278
v -0.057358 1.786530 0.868278
v -0.057358 1.786530 0.620198
v -0.553516 2.034609 0.620198
v -0.801596 2.034609 0.124040
v -0.553516 2.034609 0.372119
v -0.553516 2.282689 0.372119
v -0.553516 2.034609 0.124040
v -0.553516 2.282689 0.124040
v -0.305437 2.034609 0.620198
v -0.305437 2.282689 0.620198
v -0.057358 2.034609 0.620198
v -0.057358 2.282689 0.620198
v -0.305437 2.034609 0.372119
v -0.305437 2.282689 0.372119
v -0.305437 2.282689 0.124040
v -0.057358 2.282689 0.372119
v -0.305437 2.530768 0.372119
v -0.305437 2.778847 0.372119
v -0.305437 2.530768 0.124040
v -0.305437 2.778847 0.124040
v -0.057358 2.530768 0.372119
v -0.057358 2.778847 0.372119
v -0.057358 2.778847 0.124040
v -0.553516 3.523086 0.372119
v -0.553516 3.771165 0.372119
v -0.553516 3.523086 0.124040
v -0.553516 3.771165 0.124040
v -0.305437 3.523086 0.620198
v -0.305437 3.771165 0.620198
v -0.057358 3.523086 0.620198
v -0.057358 3.771165 0.620198
v -0.305437 3.275006 0.372119
v -0.305437 3.026927 0.124040
v -0.305437 3.275006 0.124040
v -0.057358 3.026927 0.372119
v -0.057358 3.275006 0.372119
v -0.057358 3.026927 0.124040
v -0.057358 3.275006 0.124040
v -0.305437 3.523086 0.372119
v -0.305437 3.771165 0.372119
v -0.305437 3.523086 0.124040
v -0.305437 3.771165 0.124040
v -0.057358 3.523086 0.372119
v -0.057358 3.771165 0.372119
v -1.049675 0.794212 -0.124040
v -1.049675 0.794212 -0.372119
v -1.049675 1.042291 -0.124040
v -1.049675 1.290371 -0.124040
v -1.049675 1.042291 -0.372119
v -1.049675 1.290371 -0.372119
v -0.801596 0.298053 -0.124040
v -0.801596 0.298053 -0.372119
v -0.553516 0.049974 -0.124040
v -0.553516 0.298053 -0.124040
v -0.553516 0.298053 -0.372119
v -0.801596 0.546133 -0.124040
v -0.801596 0.794212 -0.124040
v -0.801596 0.546133 -0.372119
v -0.801596 0.794212 -0.372119
v -0.553516 0.546133 -0.372119
v -0.553516 0.298053 -0.620198
v -0.801596 0.546133 -0.620198
v -0.801596 0.794212 -0.620198
v -0.553516 0.546133 -0.620198
v -0.553516 0.794212 -0.620198
v -0.553516 0.546133 -0.868278
v -0.553516 0.794212 -0.868278
v -0.305437 0.049974 -0.124040
v -0.305437 0.298053 -0.124040
v -0.305437 0.049974 -0.372119
v -0.305437 0.298053 -0.372119
v -0.057358 0.049974 -0.124040
v -0.057358 0.049974 -0.372119
v -0.057358 0.298053 -0.372119
v -0.305437 0.049974 -0.620198
v -0.305437 0.298053 -0.620198
v -0.305437 0.298053 -0.868278
v -0.057358 0.049974 -0.620198
v -0.057358 0.298053 -0.620198
v -0.057358 0.298053 -0.868278
v -0.305437 0.546133 -0.620198
v -0.305437 0.546133 -0.868278
v -0.305437 0.794212 -0.868278
v -0.057358 0.546133 -0.868278
v -0.057358 0.794212 -0.868278
v -0.801596 1.290371 -0.124040
v -0.801596 1.042291 -0.372119
v -0.801596 1.290371 -0.372119
v -0.801596 1.538450 -0.124040
v -0.801596 1.786530 -0.124040
v -0.801596 1.538450 -0.372119
v -0.801596 1.786530 -0.372119
v -0.553516 1.786530 -0.124040
v -0.553516 1.786530 -0.372119
v -0.801596 1.042291 -0.620198
v -0.801596 1.290371 -0.620198
v -0.553516 1.042291 -0.620198
v -0.553516 1.290371 -0.620198
v -0.553516 1.042291 -0.868278
v -0.553516 1.290371 -0.868278
v -0.801596 1.538450 -0.620198
v -0.801596 1.786530 -0.620198
v -0.553516 1.538450 -0.620198
v -0.553516 1.786530 -0.620198
v -0.553516 1.538450 -0.868278
v -0.305437 1.042291 -0.868278
v -0.305437 1.290371 -0.868278
v -0.057358 1.042291 -0.868278
v -0.057358 1.290371 -0.868278
v -0.305437 1.538450 -0.620198
v -0.305437 1.786530 -0.620198
v -0.305437 1.538450 -0.868278
v -0.305437 1.786530 -0.868278
v -0.057358 1.786530 -0.620198
v -0.057358 1.538450 -0.868278
v -0.057358 1.786530 -0.868278
v -0.801596 2.034609 -0.124040
v -0.553516 2.034609 -0.124040
v -0.553516 2.282689 -0.124040
v -0.553516 2.034609 -0.372119
v -0.553516 2.282689 -0.372119
v -0.553516 2.034609 -0.620198
v -0.305437 2.282689 -0.124040
v -0.305437 2.034609 -0.372119
v -0.305437 2.282689 -0.372119
v -0.057358 2.282689 -0.372119
v -0.305437 2.530768 -0.124040
v -0.305437 2.778847 -0.124040
v -0.305437 2.530768 -0.372119
v -0.305437 2.778847 -0.372119
v -0.057358 2.778847 -0.124040
v -0.057358 2.530768 -0.372119
v -0.057358 2.778847 -0.372119
v -0.305437 2.034609 -0.620198
v -0.305437 2.282689 -0.620198
v -0.057358 2.034609 -0.620198
v -0.057358 2.282689 -0.620198
v -0.553516 3.523086 -0.124040
v -0.553516 3.771165 -0.124040
v -0.553516 3.523086 -0.372119
v -0.553516 3.771165 -0.372119
v -0.305437 3.026927 -0.124040
v -0.305437 3.275006 -0.124040
v -0.305437 3.275006 -0.372119
v -0.057358 3.026927 -0.124040
v -0.057358 3.275006 -0.124040
v -0.057358 3.026927 -0.372119
v -0.057358 3.275006 -0.372119
v -0.305437 3.523086 -0.124040
v -0.305437 3.771165 -0.124040
v -0.305437 3.523086 -0.372119
v -0.305437 3.771165 -0.372119
v -0.057358 3.523086 -0.372119
v -0.057358 3.771165 -0.372119
v -0.305437 3.523086 -0.620198
v -0.305437 3.771165 -0.620198
v -0.057358 3.523086 -0.620198
v -0.057358 3.771165 -0.620198
v 0.190722 0.298053 0.868278
v 0.190722 0.298053 0.620198
v 0.438801 0.298053 0.620198
v 0.190722 0.546133 0.868278
v 0.190722 0.794212 0.868278
v 0.190722 0.546133 0.620198
v 0.438801 0.546133 0.868278
v 0.438801 0.794212 0.868278
v 0.438801 0.546133 0.620198
v 0.438801 0.794212 0.620198
v 0.190722 0.049974 0.372119
v 0.190722 0.298053 0.372119
v 0.190722 0.049974 0.124040
v 0.438801 0.049974 0.372119
v 0.438801 0.298053 0.372119
v 0.438801 0.049974 0.124040
v 0.438801 0.298053 0.124040
v 0.686881 0.298053 0.620198
v 0.686881 0.794212 0.868278
v 0.686881 0.546133 0.620198
v 0.686881 0.794212 0.620198
v 0.686881 0.298053 0.372119
v 0.686881 0.298053 0.124040
v 0.686881 0.546133 0.372119
v 0.686881 0.794212 0.372119
v 0.686881 0.546133 0.124040
v 0.934960 0.546133 0.372119
v 0.934960 0.794212 0.372119
v 0.934960 0.546133 0.124040
v 0.934960 0.794212 0.124040
v 0.190722 1.042291 0.868278
v 0.190722 1.290371 0.868278
v 0.438801 1.042291 0.868278
v 0.438801 1.290371 0.868278
v 0.438801 1.290371 0.620198
v 0.190722 1.538450 0.868278
v 0.190722 1.786530 0.868278
v 0.190722 1.786530 0.620198
v 0.438801 1.538450 0.868278
v 0.438801 1.786530 0.868278
v 0.438801 1.538450 0.620198
v 0.438801 1.786530 0.620198
v 0.438801 1.786530 0.372119
v 0.686881 1.042291 0.868278
v 0.686881 1.290371 0.868278
v 0.686881 1.042291 0.620198
v 0.686881 1.290371 0.620198
v 0.686881 1.538450 0.620198
v 0.686881 1.786530 0.620198
v 0.686881 1.042291 0.372119
v 0.686881 1.290371 0.372119
v 0.934960 1.042291 0.372119
v 0.934960 1.290371 0.372119
v 0.934960 1.042291 0.124040
v 0.934960 1.290371 0.124040
v 0.686881 1.538450 0.372119
v 0.686881 1.786530 0.372119
v 0.686881 1.538450 0.124040
v 0.686881 1.786530 0.124040
v 0.934960 1.538450 0.372119
v 0.934960 1.538450 0.124040
v 0.934960 1.786530 0.124040
v 0.190722 2.034609 0.620198
v 0.190722 2.282689 0.620198
v 0.438801 2.034609 0.620198
v 0.190722 2.034609 0.372119
v 0.190722 2.282689 0.372119
v 0.190722 2.282689 0.124040
v 0.438801 2.034609 0.372119
v 0.438801 2.282689 0.372119
v 0.438801 2.034609 0.124040
v 0.438801 2.282689 0.124040
v 0.190722 2.530768 0.372119
v 0.190722 2.778847 0.372119
v 0.190722 2.530768 0.124040
v 0.190722 2.778847 0.124040
v 0.438801 2.530768 0.124040
v 0.438801 2.778847 0.124040
v 0.686881 2.034609 0.372119
v 0.686881 2.034609 0.124040
v 0.686881 2.282689 0.124040
v 0.190722 3.523086 0.620198
v 0.190722 3.771165 0.620198
v 0.438801 3.523086 0.620198
v 0.438801 3.771165 0.620198
v 0.190722 3.026927 0.372119
v 0.190722 3.275006 0.372119
v 0.190722 3.026927 0.124040
v 0.190722 3.275006 0.124040
v 0.438801 3.026927 0.124040
v 0.438801 3.275006 0.124040
v 0.190722 3.523086 0.372119
v 0.190722 3.771165 0.372119
v 0.190722 3.523086 0.124040
v 0.438801 3.523086 0.372119
v 0.438801 3.771165 0.372119
v 0.438801 3.523086 0.124040
v 0.438801 3.771165 0.124040
v 0.686881 3.523086 0.372119
v 0.686881 3.771165 0.372119
v 0.686881 3.523086 0.124040
v 0.686881 3.771165 0.124040
v 0.190722 0.049974 -0.124040
v 0.190722 0.049974 -0.372119
v 0.190722 0.298053 -0.372119
v 0.438801 0.049974 -0.124040
v 0.438801 0.298053 -0.124040
v 0.438801 0.049974 -0.372119
v 0.438801 0.298053 -0.372119
v 0.190722 0.298053 -0.620198
v 0.190722 0.298053 -0.868278
v 0.438801 0.298053 -0.620198
v 0.190722 0.546133 -0.620198
v 0.190722 0.546133 -0.868278
v 0.190722 0.794212 -0.868278
v 0.438801 0.546133 -0.620198
v 0.438801 0.794212 -0.620198
v 0.438801 0.546133 -0.868278
v 0.438801 0.794212 -0.868278
v 0.686881 0.298053 -0.124040
v 0.686881 0.298053 -0.372119
v 0.686881 0.546133 -0.124040
v 0.686881 0.546133 -0.372119
v 0.686881 0.794212 -0.372119
v 0.934960 0.546133 -0.124040
v 0.934960 0.794212 -0.124040
v 0.934960 0.546133 -0.372119
v 0.934960 0.794212 -0.372119
v 0.686881 0.298053 -0.620198
v 0.686881 0.546133 -0.620198
v 0.686881 0.794212 -0.620198
v 0.686881 0.794212 -0.868278
v 0.438801 1.786530 -0.372119
v 0.190722 1.042291 -0.868278
v 0.190722 1.290371 -0.868278
v 0.438801 1.290371 -0.620198
v 0.438801 1.042291 -0.868278
v 0.438801 1.290371 -0.868278
v 0.190722 1.786530 -0.620198
v 0.190722 1.538450 -0.868278
v 0.190722 1.786530 -0.868278
v 0.438801 1.538450 -0.620198
v 0.438801 1.786530 -0.620198
v 0.438801 1.538450 -0.868278
v 0.438801 1.786530 -0.868278
v 0.686881 1.042291 -0.372119
v 0.686881 1.290371 -0.372119
v 0.934960 1.042291 -0.124040
v 0.934960 1.290371 -0.124040
v 0.934960 1.042291 -0.372119
v 0.934960 1.290371 -0.372119
v 0.686881 1.538450 -0.124040
v 0.686881 1.786530 -0.124040
v 0.686881 1.538450 -0.372119
v 0.686881 1.786530 -0.372119
v 0.934960 1.538450 -0.124040
v 0.934960 1.786530 -0.124040
v 0.934960 1.538450 -0.372119
v 0.686881 1.042291 -0.620198
v 0.686881 1.290371 -0.620198
v 0.686881 1.042291 -0.868278
v 0.686881 1.290371 -0.868278
v 0.686881 1.538450 -0.620198
v 0.686881 1.786530 -0.620198
v 0.190722 2.282689 -0.124040
v 0.190722 2.034609 -0.372119
v 0.190722 2.282689 -0.372119
v 0.438801 2.034609 -0.124040
v 0.438801 2.282689 -0.124040
v 0.438801 2.034609 -0.372119
v 0.438801 2.282689 -0.372119
v 0.190722 2.530768 -0.124040
v 0.190722 2.778847 -0.124040
v 0.190722 2.530768 -0.372119
v 0.190722 2.778847 -0.372119
v 0.438801 2.530768 -0.124040
v 0.438801 2.778847 -0.124040
v 0.190722 2.034609 -0.620198
v 0.190722 2.282689 -0.620198
v 0.438801 2.034609 -0.620198
v 0.686881 2.034609 -0.124040
v 0.686881 2.282689 -0.124040
v 0.686881 2.034609 -0.372119
v 0.190722 3.026927 -0.124040
v 0.190722 3.275006 -0.124040
v 0.190722 3.026927 -0.372119
v 0.190722 3.275006 -0.372119
v 0.438801 3.026927 -0.124040
v 0.438801 3.275006 -0.124040
v 0.190722 3.523086 -0.124040
v 0.190722 3.523086 -0.372119
v 0.190722 3.771165 -0.372119
v 0.438801 3.523086 -0.124040
v 0.438801 3.771165 -0.124040
v 0.438801 3.523086 -0.372119
v 0.438801 3.771165 -0.372119
v 0.190722 3.523086 -0.620198
v 0.190722 3.771165 -0.620198
v 0.438801 3.523086 -0.620198
v 0.438801 3.771165 -0.620198
v 0.686881 3.523086 -0.124040
v 0.686881 3.771165 -0.124040
v 0.686881 3.523086 -0.372119
v 0.686881 3.771165 -0.372119
v -0.305437 3.522572 0.372119
v -0.057358 3.522572 0.372119
v -0.057358 3.522572 0.124040
v -0.305437 3.522572 0.124040
v -0.305437 3.522572 -0.124040
v -0.057358 3.522572 -0.124040
v -0.057358 3.522572 -0.372119
v -0.305437 3.522572 -0.372119
v 0.190722 3.522572 0.372119
v 0.438801 3.522572 0.372119
v 0.438801 3.522572 0.124040
v 0.190722 3.522572 0.124040
v 0.190722 3.522572 -0.124040
v 0.438801 3.522572 -0.124040
v 0.438801 3.522572 -0.372119
v 0.190722 3.522572 -0.372119
vn -1.0000 -0.0000 -0.0000
vn -0.0000 -0.0000 1.0000
vn -0.0000 -1.0000 -0.0000
vn 1.0000 -0.0000 -0.0000
vn -0.0000 1.0000 -0.0000
vn -0.0000 -0.0000 -1.0000
vt 0.653990 0.677267
vt 0.665212 0.677267
vt 0.665212 0.688092
vt 0.653990 0.688092
vt 0.610349 0.678620
vt 0.621571 0.678620
vt 0.621571 0.689445
vt 0.610349 0.689445
vt 0.632793 0.678620
vt 0.644015 0.678620
vt 0.644015 0.689445
vt 0.632793 0.689445
vt 0.676434 0.675913
vt 0.687656 0.675913
vt 0.687656 0.686739
vt 0.676434 0.686739
vt 0.678928 0.315968
vt 0.690150 0.315968
vt 0.690150 0.326793
vt 0.678928 0.326793
vt 0.655237 0.315968
vt 0.666459 0.315968
vt 0.666459 0.326793
vt 0.655237 0.326793
vt 0.632793 0.318674
vt 0.644015 0.318674
vt 0.644015 0.329499
vt 0.632793 0.329499
vt 0.685162 0.326793
vt 0.688903 0.322733
vt 0.687656 0.317321
vt 0.681421 0.317321
vt 0.680175 0.322733
s 0
f 3/1/1 4/2/1 6/3/1 5/4/1
f 10/1/1 11/2/1 13/3/1 12/4/1
f 8/5/2 12/6/2 13/7/2 9/8/2
f 14/9/3 15/10/3 18/11/3 16/12/3
f 19/5/1 20/6/1 22/7/1 21/8/1
f 25/1/2 28/2/2 29/3/2 26/4/2
f 24/1/3 26/2/3 29/3/3 27/4/3
f 30/1/2 33/2/2 34/3/2 31/4/2
f 35/1/1 36/2/1 38/3/1 37/4/1
f 35/5/3 37/6/3 41/7/3 39/8/3
f 10/9/2 30/10/2 31/11/2 11/12/2
f 10/1/3 12/2/3 32/3/3 30/4/3
f 17/1/2 37/2/2 38/3/2 18/4/2
f 16/1/3 18/2/3 38/3/3 36/4/3
f 25/9/1 26/10/1 36/11/1 35/12/1
f 39/1/4 40/2/4 29/3/4 28/4/4
f 25/1/3 35/2/3 39/3/3 28/4/3
f 8/13/1 9/14/1 20/15/1 19/16/1
f 8/5/3 19/6/3 23/7/3 12/8/3
f 14/1/1 19/2/1 21/3/1 15/4/1
f 14/1/2 16/2/2 23/3/2 19/4/2
f 24/9/1 30/10/1 32/11/1 26/12/1
f 24/1/2 27/2/2 33/3/2 30/4/2
f 7/9/1 12/10/1 23/11/1 16/12/1
f 7/1/2 26/2/2 32/3/2 12/4/2
f 7/5/3 16/6/3 36/7/3 26/8/3
f 44/9/1 45/10/1 47/11/1 46/12/1
f 42/9/2 46/10/2 47/11/2 43/12/2
f 48/1/2 51/2/2 52/3/2 49/4/2
f 56/1/1 57/2/1 59/3/1 58/4/1
f 60/9/5 61/10/5 59/11/5 57/12/5
f 62/9/2 64/10/2 65/11/2 63/12/2
f 66/1/1 67/2/1 69/3/1 68/4/1
f 66/1/2 70/2/2 71/3/2 67/4/2
f 71/1/5 72/2/5 69/3/5 67/4/5
f 44/13/2 62/14/2 63/15/2 45/16/2
f 51/5/2 68/6/2 69/7/2 52/8/2
f 66/1/5 68/2/5 51/3/5 50/4/5
f 42/1/1 43/2/1 54/3/1 53/4/1
f 48/1/1 49/2/1 57/3/1 56/4/1
f 52/9/5 60/10/5 57/11/5 49/12/5
f 45/1/1 50/2/1 51/3/1 47/4/1
f 43/5/2 47/6/2 51/7/2 48/8/2
f 54/1/1 56/2/1 58/3/1 55/4/1
f 63/1/2 65/2/2 70/3/2 66/4/2
f 43/5/1 48/6/1 56/7/1 54/8/1
f 45/1/2 63/2/2 66/3/2 50/4/2
f 1/13/3 2/14/3 22/15/3 20/16/3
f 3/1/2 53/2/2 54/3/2 4/4/2
f 54/1/5 55/2/5 6/3/5 4/4/5
f 1/13/1 3/14/1 5/15/1 2/16/1
f 11/1/1 44/2/1 46/3/1 13/4/1
f 9/13/2 13/14/2 46/15/2 42/16/2
f 31/1/2 34/2/2 64/3/2 62/4/2
f 9/1/1 42/2/1 53/3/1 20/4/1
f 11/1/2 31/2/2 62/3/2 44/4/2
f 1/1/2 20/2/2 53/3/2 3/4/2
f 75/5/1 76/6/1 78/7/1 77/8/1
f 79/1/2 81/2/2 82/3/2 80/4/2
f 87/5/1 88/6/1 90/7/1 89/8/1
f 87/1/2 91/2/2 92/3/2 88/4/2
f 92/17/5 93/18/5 90/19/5 88/20/5
f 75/5/2 83/6/2 84/7/2 76/8/2
f 84/1/5 85/2/5 78/3/5 76/4/5
f 79/9/1 80/10/1 84/11/1 83/12/1
f 82/1/5 86/2/5 84/3/5 80/4/5
f 84/1/1 87/2/1 89/3/1 85/4/1
f 84/1/2 86/2/2 91/3/2 87/4/2
f 79/9/5 83/10/5 75/11/5 73/12/5
f 94/21/1 95/22/1 97/23/1 96/24/1
f 98/17/2 100/18/2 101/19/2 99/20/2
f 105/25/1 106/26/1 108/27/1 107/28/1
f 103/25/2 107/26/2 108/27/2 104/28/2
f 102/21/3 104/22/3 108/23/3 106/24/3
f 326/17/1 422/18/1 446/19/1 443/20/1
f 94/17/3 96/18/3 111/19/3 109/20/3
f 110/17/5 112/18/5 97/19/5 95/20/5
f 98/17/3 109/18/3 113/19/3 100/20/3
f 101/25/5 114/26/5 110/27/5 99/28/5
f 102/21/1 109/22/1 111/23/1 104/24/1
f 102/21/2 106/22/2 113/23/2 109/24/2
f 92/17/1 105/18/1 107/19/1 93/20/1
f 90/17/2 93/18/2 107/19/2 103/20/2
f 117/1/1 118/2/1 120/3/1 119/4/1
f 121/1/3 122/2/3 125/3/3 124/4/3
f 126/1/1 127/2/1 129/3/1 128/4/1
f 134/5/1 135/6/1 137/7/1 136/8/1
f 133/5/6 135/6/6 134/7/6 132/8/6
f 138/1/1 139/2/1 141/3/1 140/4/1
f 138/1/3 140/2/3 143/3/3 142/4/3
f 146/13/6 149/14/6 148/15/6 145/16/6
f 146/1/3 147/2/3 150/3/3 149/4/3
f 153/1/6 155/2/6 154/3/6 152/4/6
f 124/1/6 139/2/6 138/3/6 123/4/6
f 124/1/3 125/2/3 141/3/3 139/4/3
f 137/5/6 153/6/6 152/7/6 136/8/6
f 134/5/3 136/6/3 152/7/3 151/8/3
f 140/5/1 141/6/1 146/7/1 145/8/1
f 148/13/4 149/14/4 144/15/4 143/16/4
f 140/5/3 145/6/3 148/7/3 143/8/3
f 128/1/1 129/2/1 133/3/1 132/4/1
f 128/5/3 132/6/3 134/7/3 130/8/3
f 121/13/1 126/14/1 128/15/1 122/16/1
f 128/1/6 130/2/6 125/3/6 122/4/6
f 146/1/1 151/2/1 152/3/1 147/4/1
f 152/1/6 154/2/6 150/3/6 147/4/6
f 125/1/1 130/2/1 134/3/1 131/4/1
f 134/1/6 151/2/6 146/3/6 131/4/6
f 125/9/3 131/10/3 146/11/3 141/12/3
f 159/13/1 160/14/1 162/15/1 161/16/1
f 163/1/5 164/2/5 162/3/5 160/4/5
f 167/1/1 168/2/1 170/3/1 169/4/1
f 166/1/6 168/2/6 167/3/6 165/4/6
f 172/9/6 174/10/6 173/11/6 171/12/6
f 177/13/6 179/14/6 178/15/6 176/16/6
f 180/1/1 181/2/1 183/3/1 182/4/1
f 183/1/6 186/2/6 185/3/6 182/4/6
f 184/9/5 186/10/5 183/11/5 181/12/5
f 170/13/6 177/14/6 176/15/6 169/16/6
f 174/1/6 181/2/6 180/3/6 173/4/6
f 180/1/5 182/2/5 175/3/5 173/4/5
f 157/1/1 158/2/1 166/3/1 165/4/1
f 161/9/1 162/10/1 172/11/1 171/12/1
f 164/1/5 174/2/5 172/3/5 162/4/5
f 156/1/1 159/2/1 161/3/1 158/4/1
f 168/1/1 173/2/1 175/3/1 170/4/1
f 171/1/6 173/2/6 168/3/6 166/4/6
f 182/5/6 185/6/6 179/7/6 177/8/6
f 158/1/1 161/2/1 171/3/1 166/4/1
f 175/1/6 182/2/6 177/3/6 170/4/6
f 115/1/3 116/2/3 129/3/3 127/4/3
f 120/1/6 158/2/6 157/3/6 119/4/6
f 156/5/5 158/6/5 120/7/5 118/8/5
f 115/1/1 117/2/1 119/3/1 116/4/1
f 135/1/1 167/2/1 169/3/1 137/4/1
f 165/5/6 167/6/6 135/7/6 133/8/6
f 176/9/6 178/10/6 155/11/6 153/12/6
f 129/5/1 157/6/1 165/7/1 133/8/1
f 169/1/6 176/2/6 153/3/6 137/4/6
f 119/1/6 157/2/6 129/3/6 116/4/6
f 188/1/1 189/2/1 191/3/1 190/4/1
f 197/1/1 198/2/1 200/3/1 199/4/1
f 200/13/6 203/14/6 202/15/6 199/16/6
f 201/21/5 203/22/5 200/23/5 198/24/5
f 205/9/6 207/10/6 206/11/6 204/12/6
f 191/1/6 195/2/6 194/3/6 190/4/6
f 193/1/5 195/2/5 191/3/5 189/4/5
f 194/9/1 195/10/1 205/11/1 204/12/1
f 196/1/5 207/2/5 205/3/5 195/4/5
f 193/1/1 197/2/1 199/3/1 195/4/1
f 199/13/6 202/14/6 196/15/6 195/16/6
f 194/9/5 204/10/5 192/11/5 190/12/5
f 208/17/1 209/18/1 211/19/1 210/20/1
f 215/21/1 216/22/1 218/23/1 217/24/1
f 213/17/6 216/18/6 215/19/6 212/20/6
f 213/17/3 214/18/3 218/19/3 216/20/3
f 112/17/4 110/18/4 433/19/4 436/20/4
f 226/17/6 228/18/6 227/19/6 225/20/6
f 208/17/3 210/18/3 221/19/3 219/20/3
f 220/17/5 222/18/5 211/19/5 209/20/5
f 221/21/3 225/22/3 227/23/3 223/24/3
f 224/17/5 228/18/5 226/19/5 222/20/5
f 213/21/1 219/22/1 221/23/1 214/24/1
f 221/17/6 223/18/6 218/19/6 214/20/6
f 201/25/1 215/26/1 217/27/1 203/28/1
f 212/25/6 215/26/6 201/27/6 198/28/6
f 237/5/4 238/6/4 236/7/4 235/8/4
f 232/1/2 235/2/2 236/3/2 233/4/2
f 232/1/3 234/2/3 237/3/3 235/4/3
f 244/1/4 245/2/4 243/3/4 242/4/4
f 239/5/2 242/6/2 243/7/2 240/8/2
f 239/1/3 241/2/3 244/3/3 242/4/3
f 257/5/4 258/6/4 256/7/4 255/8/4
f 252/9/2 255/10/2 256/11/2 253/12/2
f 252/9/3 254/10/3 257/11/3 255/12/3
f 237/1/2 248/2/2 249/3/2 238/4/2
f 236/5/3 238/6/3 249/7/3 247/8/3
f 243/1/3 245/2/3 251/3/3 250/4/3
f 230/5/3 240/6/3 243/7/3 231/8/3
f 252/1/4 253/2/4 249/3/4 248/4/4
f 230/1/4 234/2/4 232/3/4 229/4/4
f 230/1/2 231/2/2 237/3/2 234/4/2
f 251/1/4 254/2/4 252/3/4 250/4/4
f 250/1/4 252/2/4 248/3/4 246/4/4
f 231/13/2 246/14/2 248/15/2 237/16/2
f 231/1/3 243/2/3 250/3/3 246/4/3
f 259/1/2 261/2/2 262/3/2 260/4/2
f 269/13/4 270/14/4 268/15/4 267/16/4
f 264/1/2 267/2/2 268/3/2 265/4/2
f 268/5/5 270/6/5 266/7/5 265/8/5
f 274/9/4 275/10/4 273/11/4 272/12/4
f 282/1/4 283/2/4 281/3/4 280/4/4
f 278/1/2 280/2/2 281/3/2 279/4/2
f 286/9/4 287/10/4 285/11/4 284/12/4
f 286/13/2 289/14/2 290/15/2 287/16/2
f 288/5/5 289/6/5 286/7/5 284/8/5
f 261/1/2 272/2/2 273/3/2 262/4/2
f 273/1/5 275/2/5 263/3/5 262/4/5
f 269/1/2 276/2/2 277/3/2 270/4/2
f 278/9/4 279/10/4 275/11/4 274/12/4
f 284/1/4 285/2/4 277/3/4 276/4/4
f 263/9/4 269/10/4 267/11/4 262/12/4
f 260/1/2 262/2/2 267/3/2 264/4/2
f 283/5/4 289/6/4 288/7/4 281/8/4
f 279/9/2 281/10/2 288/11/2 284/12/2
f 279/13/4 284/14/4 276/15/4 275/16/4
f 263/5/2 275/6/2 276/7/2 269/8/2
f 277/1/5 285/2/5 271/3/5 270/4/5
f 233/1/2 236/2/2 261/3/2 259/4/2
f 249/9/4 274/10/4 272/11/4 247/12/4
f 258/5/4 282/6/4 280/7/4 256/8/4
f 253/1/2 256/2/2 280/3/2 278/4/2
f 253/1/4 278/2/4 274/3/4 249/4/4
f 236/5/2 247/6/2 272/7/2 261/8/2
f 299/9/4 300/10/4 298/11/4 297/12/4
f 294/1/2 297/2/2 298/3/2 295/4/2
f 298/1/5 300/2/5 296/3/5 295/4/5
f 303/9/4 304/10/4 302/11/4 301/12/4
f 303/1/2 305/2/2 306/3/2 304/4/2
f 299/1/2 308/2/2 309/3/2 300/4/2
f 307/1/5 308/2/5 299/3/5 297/4/5
f 294/1/4 295/2/4 292/3/4 291/4/4
f 293/1/5 297/2/5 294/3/5 291/4/5
f 296/9/4 303/10/4 301/11/4 295/12/4
f 296/9/2 300/10/2 305/11/2 303/12/2
f 310/17/2 312/18/2 313/19/2 311/20/2
f 316/17/4 317/18/4 315/19/4 314/20/4
f 316/21/2 318/22/2 319/23/2 317/24/2
f 320/17/3 322/18/3 325/19/3 323/20/3
f 222/17/4 220/18/4 437/19/4 440/20/4
f 329/17/4 330/18/4 328/19/4 327/20/4
f 323/17/2 327/18/2 328/19/2 324/20/2
f 323/25/3 325/26/3 329/27/3 327/28/3
f 328/17/5 330/18/5 326/19/5 324/20/5
f 323/17/4 324/18/4 313/19/4 312/20/4
f 310/17/3 320/18/3 323/19/3 312/20/3
f 313/17/5 324/18/5 321/19/5 311/20/5
f 317/17/4 322/18/4 320/19/4 315/20/4
f 317/17/2 319/18/2 325/19/2 322/20/2
f 304/17/4 316/18/4 314/19/4 302/20/4
f 304/17/2 306/18/2 318/19/2 316/20/2
f 336/1/4 337/2/4 335/3/4 334/4/4
f 333/1/6 337/2/6 336/3/6 332/4/6
f 331/1/3 332/2/3 336/3/3 334/4/3
f 346/1/4 347/2/4 345/3/4 344/4/4
f 343/1/6 347/2/6 346/3/6 342/4/6
f 341/1/3 342/2/3 346/3/3 344/4/3
f 355/1/4 356/2/4 354/3/4 353/4/4
f 352/1/6 356/2/6 355/3/6 351/4/6
f 350/1/3 351/2/3 355/3/3 353/4/3
f 335/1/3 337/2/3 349/3/3 348/4/3
f 345/5/6 359/6/6 358/7/6 344/8/6
f 345/1/3 347/2/3 360/3/3 359/4/3
f 333/1/3 338/2/3 340/3/3 337/4/3
f 358/5/4 359/6/4 352/7/4 351/8/4
f 339/1/4 342/2/4 341/3/4 338/4/4
f 341/1/6 344/2/6 340/3/6 338/4/6
f 349/1/4 351/2/4 350/3/4 348/4/4
f 357/1/4 358/2/4 351/3/4 349/4/4
f 344/1/6 358/2/6 357/3/6 340/4/6
f 337/1/3 340/2/3 357/3/3 349/4/3
f 363/1/6 366/2/6 365/3/6 362/4/6
f 372/1/4 373/2/4 371/3/4 370/4/4
f 369/1/6 373/2/6 372/3/6 368/4/6
f 371/1/5 373/2/5 369/3/5 367/4/5
f 378/13/4 379/14/4 377/15/4 376/16/4
f 375/1/6 379/2/6 378/3/6 374/4/6
f 382/9/4 383/10/4 381/11/4 380/12/4
f 381/9/6 385/10/6 384/11/6 380/12/6
f 384/9/5 386/10/5 382/11/5 380/12/5
f 389/1/4 390/2/4 388/3/4 387/4/4
f 366/1/6 390/2/6 389/3/6 365/4/6
f 388/1/5 390/2/5 366/3/5 364/4/5
f 371/13/6 392/14/6 391/15/6 370/16/6
f 387/1/4 388/2/4 375/3/4 374/4/4
f 391/1/4 392/2/4 383/3/4 382/4/4
f 366/9/4 372/10/4 370/11/4 364/12/4
f 368/1/6 372/2/6 366/3/6 363/4/6
f 379/1/4 386/2/4 384/3/4 377/4/4
f 382/9/6 386/10/6 379/11/6 375/12/6
f 388/1/4 391/2/4 382/3/4 375/4/4
f 370/9/6 391/10/6 388/11/6 364/12/6
f 383/1/5 392/2/5 371/3/5 361/4/5
f 362/1/6 365/2/6 347/3/6 343/4/6
f 356/1/4 378/2/4 376/3/4 354/4/4
f 374/5/6 378/6/6 356/7/6 352/8/6
f 360/13/4 389/14/4 387/15/4 359/16/4
f 359/1/4 387/2/4 374/3/4 352/4/4
f 365/1/6 389/2/6 360/3/6 347/4/6
f 398/1/4 399/2/4 397/3/4 396/4/4
f 395/5/6 399/6/6 398/7/6 394/8/6
f 397/13/5 399/14/5 395/15/5 393/16/5
f 402/1/4 403/2/4 401/3/4 400/4/4
f 401/1/6 405/2/6 404/3/6 400/4/6
f 397/1/6 410/2/6 409/3/6 396/4/6
f 409/1/5 411/2/5 398/3/5 396/4/5
f 406/1/4 407/2/4 395/3/4 394/4/4
f 398/1/5 408/2/5 406/3/5 394/4/5
f 395/1/4 402/2/4 400/3/4 393/4/4
f 400/1/6 404/2/6 397/3/6 393/4/6
f 414/17/4 415/18/4 413/19/4 412/20/4
f 413/17/6 417/18/6 416/19/6 412/20/6
f 418/17/3 419/18/3 423/19/3 421/20/3
f 324/17/1 326/18/1 443/19/1 442/20/1
f 426/17/6 428/18/6 427/19/6 425/20/6
f 431/17/4 432/18/4 430/19/4 429/20/4
f 424/17/6 432/18/6 431/19/6 423/20/6
f 421/25/3 423/26/3 431/27/3 429/28/3
f 430/21/5 432/22/5 424/23/5 422/24/5
f 427/17/4 428/18/4 424/19/4 423/20/4
f 419/17/3 425/18/3 427/19/3 423/20/3
f 424/17/5 428/18/5 426/19/5 420/20/5
f 415/17/4 419/18/4 418/19/4 413/20/4
f 418/21/6 421/22/6 417/23/6 413/24/6
f 403/17/4 414/18/4 412/19/4 401/20/4
f 412/17/6 416/18/6 405/19/6 401/20/6
f 27/1/3 29/2/3 230/3/3 229/4/3
f 33/1/2 232/2/2 233/3/2 34/4/2
f 39/1/2 239/2/2 240/3/2 40/4/2
f 39/1/3 41/2/3 241/3/3 239/4/3
f 27/1/2 229/2/2 232/3/2 33/4/2
f 29/1/3 40/2/3 240/3/3 230/4/3
f 64/1/2 259/2/2 260/3/2 65/4/2
f 70/1/2 264/2/2 265/3/2 71/4/2
f 265/1/5 266/2/5 72/3/5 71/4/5
f 65/9/2 260/10/2 264/11/2 70/12/2
f 34/1/2 233/2/2 259/3/2 64/4/2
f 81/13/2 291/14/2 292/15/2 82/16/2
f 91/17/2 301/18/2 302/19/2 92/20/2
f 86/1/2 295/2/2 301/3/2 91/4/2
f 292/13/5 295/14/5 86/15/5 82/16/5
f 100/17/2 310/18/2 311/19/2 101/20/2
f 105/25/2 314/26/2 315/27/2 106/28/2
f 424/17/2 420/18/2 448/19/2 447/20/2
f 106/17/2 315/18/2 320/19/2 113/20/2
f 100/17/3 113/18/3 320/19/3 310/20/3
f 311/17/5 321/18/5 114/19/5 101/20/5
f 92/17/2 302/18/2 314/19/2 105/20/2
f 144/1/6 333/2/6 332/3/6 143/4/6
f 142/13/3 143/14/3 332/15/3 331/16/3
f 149/1/3 150/2/3 339/3/3 338/4/3
f 155/5/6 343/6/6 342/7/6 154/8/6
f 154/5/6 342/6/6 339/7/6 150/8/6
f 144/1/3 149/2/3 338/3/3 333/4/3
f 179/1/6 363/2/6 362/3/6 178/4/6
f 186/1/6 369/2/6 368/3/6 185/4/6
f 367/1/5 369/2/5 186/3/5 184/4/5
f 185/5/6 368/6/6 363/7/6 179/8/6
f 178/9/6 362/10/6 343/11/6 155/12/6
f 203/1/6 403/2/6 402/3/6 202/4/6
f 207/1/6 407/2/6 406/3/6 206/4/6
f 202/1/6 402/2/6 395/3/6 196/4/6
f 395/1/5 407/2/5 207/3/5 196/4/5
f 218/17/6 415/18/6 414/19/6 217/20/6
f 224/17/2 222/18/2 440/19/2 439/20/2
f 228/17/6 426/18/6 425/19/6 227/20/6
f 223/17/6 419/18/6 415/19/6 218/20/6
f 223/17/3 227/18/3 425/19/3 419/20/3
f 420/17/5 426/18/5 228/19/5 224/20/5
f 217/17/6 414/18/6 403/19/6 203/20/6
f 17/9/1 18/10/1 124/11/1 123/12/1
f 15/1/3 121/2/3 124/3/3 18/4/3
f 37/9/3 138/10/3 142/11/3 41/12/3
f 21/5/1 22/6/1 127/7/1 126/8/1
f 15/1/1 21/2/1 126/3/1 121/4/1
f 17/9/3 123/10/3 138/11/3 37/12/3
f 5/13/1 6/14/1 118/15/1 117/16/1
f 58/5/1 59/6/1 160/7/1 159/8/1
f 55/1/1 58/2/1 159/3/1 156/4/1
f 2/13/1 5/14/1 117/15/1 115/16/1
f 2/9/3 115/10/3 127/11/3 22/12/3
f 55/13/5 156/14/5 118/15/5 6/16/5
f 334/9/4 335/10/4 245/11/4 244/12/4
f 241/5/3 331/6/3 334/7/3 244/8/3
f 353/9/4 354/10/4 258/11/4 257/12/4
f 254/1/3 350/2/3 353/3/3 257/4/3
f 348/1/4 350/2/4 254/3/4 251/4/4
f 245/13/3 335/14/3 348/15/3 251/16/3
f 376/1/4 377/2/4 283/3/4 282/4/4
f 384/1/4 385/2/4 290/3/4 289/4/4
f 290/1/5 385/2/5 381/3/5 287/4/5
f 377/1/4 384/2/4 289/3/4 283/4/4
f 354/13/4 376/14/4 282/15/4 258/16/4
f 77/5/1 78/6/1 189/7/1 188/8/1
f 77/1/5 188/2/5 187/3/5 74/4/5
f 89/1/1 90/2/1 198/3/1 197/4/1
f 85/5/1 89/6/1 197/7/1 193/8/1
f 85/5/5 193/6/5 189/7/5 78/8/5
f 103/25/1 104/26/1 213/27/1 212/28/1
f 96/17/1 97/18/1 209/19/1 208/20/1
f 321/25/6 324/26/6 442/27/6 441/28/6
f 104/25/1 111/26/1 219/27/1 213/28/1
f 96/17/3 208/18/3 219/19/3 111/20/3
f 112/17/5 220/18/5 209/19/5 97/20/5
f 90/17/1 103/18/1 212/19/1 198/20/1
f 409/1/4 410/2/4 309/3/4 308/4/4
f 404/1/4 405/2/4 306/3/4 305/4/4
f 397/9/4 404/10/4 305/11/4 300/12/4
f 309/9/5 410/10/5 397/11/5 300/12/5
f 416/17/4 417/18/4 319/19/4 318/20/4
f 422/17/1 424/18/1 447/19/1 446/20/1
f 429/17/4 430/18/4 330/19/4 329/20/4
f 417/17/4 421/18/4 325/19/4 319/20/4
f 325/17/3 421/18/3 429/19/3 329/20/3
f 330/17/5 430/18/5 422/19/5 326/20/5
f 405/17/4 416/18/4 318/19/4 306/20/4
f 60/13/1 75/14/1 77/15/1 61/16/1
f 59/1/2 61/2/2 77/3/2 74/4/2
f 69/1/2 72/2/2 81/3/2 79/4/2
f 52/1/1 73/2/1 75/3/1 60/4/1
f 52/1/2 69/2/2 79/3/2 73/4/2
f 163/5/1 188/6/1 190/7/1 164/8/1
f 187/1/6 188/2/6 163/3/6 160/4/6
f 204/1/6 206/2/6 184/3/6 181/4/6
f 164/13/1 190/14/1 192/15/1 174/16/1
f 192/13/6 204/14/6 181/15/6 174/16/6
f 266/13/2 270/14/2 293/15/2 291/16/2
f 287/1/4 308/2/4 307/3/4 285/4/4
f 271/1/4 297/2/4 293/3/4 270/4/4
f 271/13/2 285/14/2 307/15/2 297/16/2
f 406/1/6 408/2/6 371/3/6 367/4/6
f 383/1/4 411/2/4 409/3/4 381/4/4
f 371/1/4 408/2/4 398/3/4 361/4/4
f 398/1/6 411/2/6 383/3/6 361/4/6
f 59/1/1 74/2/1 187/3/1 160/4/1
f 381/1/4 409/2/4 308/3/4 287/4/4
f 72/1/2 266/2/2 291/3/2 81/4/2
f 206/5/6 406/6/6 367/7/6 184/8/6
f 41/9/3 142/10/3 331/11/3 241/12/3
f 220/17/4 112/18/4 436/19/4 437/20/4
f 434/17/5 435/18/5 436/19/5 433/20/5
f 438/21/5 439/22/5 440/23/5 437/24/5
f 442/17/5 443/18/5 444/19/5 441/20/5
f 446/17/5 447/18/5 448/19/5 445/20/5
f 441/17/5 444/18/5 435/19/5 434/20/5
f 445/25/5 448/26/5 439/27/5 438/28/5
f 435/17/5 438/18/5 437/19/5 436/20/5
f 443/21/5 446/22/5 445/23/5 444/24/5
f 444/17/5 445/18/5 438/19/5 435/20/5
f 420/17/2 224/18/2 439/19/2 448/20/2
f 110/25/6 114/26/6 434/27/6 433/28/6
f 114/17/6 321/18/6 441/19/6 434/20/6
f 109/29/1 98/30/1 99/31/1 110/32/1 433/33/1
f 94/29/2 109/30/2 433/31/2 110/32/2 95/33/2
f 221/29/6 210/30/6 211/31/6 222/32/6 440/33/6
f 225/29/1 221/30/1 440/31/1 222/32/1 226/33/1
